<svg xmlns="http://www.w3.org/2000/svg" viewBox="0 0 198.45 33.33"><g id="Capa_2" data-name="Capa 2"><g id="Vector"><path d="M1.33,33.31a1.22,1.22,0,0,1-1.21-.58,1.64,1.64,0,0,1,.09-1.42l13-30A1.81,1.81,0,0,1,15,.05a1.89,1.89,0,0,1,1.72,1.3l13,30a1.65,1.65,0,0,1,.16,1.42,1.11,1.11,0,0,1-1.13.58,1.55,1.55,0,0,1-1-.35A2.92,2.92,0,0,1,27,32l-3.29-7.7H6.2l-.1.07c-.87,2.38-2,4.69-3,7.06C2.81,32.26,2.37,33.31,1.33,33.31ZM14.92,4.25,7.45,21.8h15L15,4.25Z"/><path d="M35.89,33.11q-1.26,0-1.26-1.35V1.49c0-.91.41-1.36,1.23-1.36a1.57,1.57,0,0,1,.91.22,2.26,2.26,0,0,1,.59.73L49.72,24.53,62,1.08A3.2,3.2,0,0,1,62.6.35a1.48,1.48,0,0,1,.89-.22c.82,0,1.23.45,1.23,1.36V31.78a1.31,1.31,0,0,1-.41,1.08,1.53,1.53,0,0,1-1.51.1,1.22,1.22,0,0,1-.59-1.18V5.85L51.07,27a2.32,2.32,0,0,1-.53.71,1.16,1.16,0,0,1-.75.2,1.32,1.32,0,0,1-.85-.23,1.9,1.9,0,0,1-.52-.68L37.14,5.89V31.76C37.14,32.66,36.72,33.11,35.89,33.11Z"/><path d="M71.38,33.21a1.26,1.26,0,0,1-1.18-.58,1.71,1.71,0,0,1,.09-1.42l13-30a1.8,1.8,0,0,1,3.43,0l13,30a1.66,1.66,0,0,1,.17,1.42,1.36,1.36,0,0,1-1.52.55,2.07,2.07,0,0,1-1.34-1.27l-3.29-7.7H76.28L73,31.91A1.85,1.85,0,0,1,71.38,33.21ZM85,4.15,77.54,21.7h15L85.09,4.15Z"/><path d="M198.45,26.93v-.07a18,18,0,0,1-13.18,3.83,13,13,0,0,1-8.74-4.41,13.53,13.53,0,0,1-2.67-7.3,13.56,13.56,0,0,1,2.25-9.35,8.76,8.76,0,0,1,6.38-3.52,7.82,7.82,0,0,1,1.37.06c.5.08,1,.29,1.49.35.78.08,1.05-.46.84-1.15a5.77,5.77,0,0,0-2.31-2.89,11.06,11.06,0,0,0-6-1.83,15.08,15.08,0,0,0-6.72,1.51,26.27,26.27,0,0,0-5.55,3.6l-.08.06c-2.94,2.43-5.68,5.17-8.37,7.88-3,3-6.11,5.8-9.27,8.6-.23.2-.45.42-.7.61-3.05,2.41-5.9,5.25-9.49,6.87a9.62,9.62,0,0,1-6.44.69c-2.29-.63-3.82-2.58-5-4.49-1.76-2.74-3.23-5.86-5.94-7.81a8.06,8.06,0,0,0,6.16-3.82,9.66,9.66,0,0,0,1.3-6.28,8.77,8.77,0,0,0-3.38-6C121.9.28,118.69.19,115.79.16c-3.2,0-6.39,0-9.59,0a1.76,1.76,0,0,0-1.09.26,1.76,1.76,0,0,0-.44,1.42l0,28.66a4.15,4.15,0,0,0,.26,1.79,1.37,1.37,0,0,0,1.59.83c.88-.29,1-1.5,1-2.28l0-12.1c0-.07,3.68.07,3.92.07l3,.1a8.92,8.92,0,0,1,3,.44c2.42.95,3.8,3.36,5,5.53,1.64,2.94,3.82,6,6.94,7.49,6.29,3,12.53-1.78,17.17-5.6,6-5,11.61-10.38,17.11-15.92a30.43,30.43,0,0,1,7.55-5.94,13.16,13.16,0,0,1,9.34-1.28,12.47,12.47,0,0,0-7.42,6.13,16.83,16.83,0,0,0-1.75,9.58,16,16,0,0,0,3.44,8.74A14.55,14.55,0,0,0,185.38,33a18.44,18.44,0,0,0,11.26-3.64A3.76,3.76,0,0,0,198.45,26.93Zm-81.9-10.7h-9.21V2.44h9.21q8.31,0,8.32,6.88T116.55,16.23Z"/></g></g></svg>