<svg xmlns="http://www.w3.org/2000/svg" viewBox="0 0 66.02 32.66"><g id="Capa_2" data-name="Capa 2"><g id="Vector"><path d="M52.83,30.05a13,13,0,0,1-8.73-4.41,13.55,13.55,0,0,1-2.68-7.3A13.61,13.61,0,0,1,43.68,9a8.76,8.76,0,0,1,6.37-3.51,6.27,6.27,0,0,1,1.37.06c.51.08,1,.29,1.49.34.78.09,1.06-.46.84-1.14a5.63,5.63,0,0,0-2.31-2.89,11,11,0,0,0-6-1.84,15.32,15.32,0,0,0-6.72,1.51,26,26,0,0,0-5.55,3.6l-.08.07a90.27,90.27,0,0,0-7.45,6.93c-3.25,3.35-6.7,6.45-10.19,9.54-.23.21-.46.43-.7.62-3.06,2.41-5.91,5.24-9.5,6.87a11.8,11.8,0,0,1-2.1.71A5,5,0,0,0,.43,31.59L.09,32a.39.39,0,0,0,.26.64c5.08.36,9.94-3.38,13.72-6.51,6-5,11.61-10.37,17.12-15.92a30.26,30.26,0,0,1,7.55-5.93A13.09,13.09,0,0,1,48.08,3a12.36,12.36,0,0,0-7.42,6.12,16.79,16.79,0,0,0-1.76,9.59,16,16,0,0,0,3.44,8.73,14.56,14.56,0,0,0,10.6,5,18.6,18.6,0,0,0,12-4.17A2.89,2.89,0,0,0,66,26.45c0-.07,0-.16,0-.24A18,18,0,0,1,52.83,30.05Z"/></g></g></svg>